<?xml version="1.0" encoding="utf-8"?>
<!-- Generator: Adobe Illustrator 23.0.0, SVG Export Plug-In . SVG Version: 6.00 Build 0)  -->
<svg width="42" height="42" version="1.1" id="图层_1" xmlns="http://www.w3.org/2000/svg" xmlns:xlink="http://www.w3.org/1999/xlink" x="0px" y="0px"
	 viewBox="0 0 42 42" style="enable-background:new 0 0 42 42;" xml:space="preserve">
<g>
	<path d="M13.4,26.2h-1.9l-2.8-9l-0.1,0.1v9H6.6V15.7h3.7l2.2,7.7h0.1l2.4-7.7h3.5v10.5h-2.1v-9v-0.1L13.4,26.2z"/>
	<path d="M20.3,21c0-0.8,0.4-1.4,1-1.8c0.5-0.3,1.2-0.5,2.2-0.5c2,0,3.1,0.9,3.1,2.7v4c0,0.1,0,0.2,0.1,0.2c0,0.2,0.1,0.3,0.1,0.6
		h-1.9c-0.1-0.3-0.1-0.7-0.1-1c-0.5,0.8-1.2,1.1-2.3,1.1c-1.6-0.1-2.4-0.8-2.4-2.1c0.1-1.1,0.6-1.9,1.6-2.3c0.7-0.3,1.6-0.4,2.8-0.4
		v-0.7c-0.1-0.6-0.4-0.9-1-0.9c-0.6,0-0.9,0.4-1,1.1H20.3z M22.1,23.9c0,0.6,0.4,1,1.1,1c0.9,0,1.3-0.7,1.3-2.2
		C22.9,22.7,22.1,23.1,22.1,23.9z"/>
	<path d="M35.4,26.2h-2.6l-1.5-2.7l-1.5,2.7h-2.3l2.5-3.9l-2.4-3.4h2.6l1.4,2.4l1.5-2.4h2.2L33,22.4L35.4,26.2z"/>
</g>
</svg>
